<svg id="Layer_1" data-name="Layer 1" xmlns="http://www.w3.org/2000/svg" viewBox="0 0 145.86 145.42"><title>Artboard 1</title><path d="M89.47,5,86.31,6.31A5,5,0,0,0,85,4.24,4.23,4.23,0,0,0,80.44,4a2.66,2.66,0,0,0-1.26,2c-.15,1.17.6,2.22,2.24,3.16l2.26,1.29a10.22,10.22,0,0,1,3.9,3.42,6.58,6.58,0,0,1,.81,4.34,7.4,7.4,0,0,1-2.91,5.18,7.67,7.67,0,0,1-5.79,1.46,7.48,7.48,0,0,1-4.91-2.51A8.61,8.61,0,0,1,73,16.82l3.76-.34a6.41,6.41,0,0,0,.49,3,4.16,4.16,0,0,0,6,1.2A3.89,3.89,0,0,0,84.71,18a4.07,4.07,0,0,0,0-1.31,3.3,3.3,0,0,0-.46-1.14,5.11,5.11,0,0,0-1-1.06,11.21,11.21,0,0,0-1.44-1l-2.19-1.26Q75,9.5,75.51,5.49a5.81,5.81,0,0,1,2.64-4.24A7.57,7.57,0,0,1,83.52.08,7.23,7.23,0,0,1,89.47,5Z"/><path d="M116.55,14.87l-2.11,3.77a10.12,10.12,0,0,0-4.41-5.5,8.32,8.32,0,0,0-6.78-.73,9,9,0,0,0-5.42,4.42,8.8,8.8,0,0,0-.89,6.85A8.46,8.46,0,0,0,101.15,29a7.56,7.56,0,0,0,3.15,1,9.4,9.4,0,0,0,1.77,0,16.07,16.07,0,0,0,2.11-.29L106,33.65A13.15,13.15,0,0,1,99.44,32a12.18,12.18,0,0,1-6-7.47,12,12,0,0,1,1.12-9.45,12.36,12.36,0,0,1,6.68-5.68,12.13,12.13,0,0,1,10.64.88A12.38,12.38,0,0,1,116.55,14.87Z"/><path d="M120.18,36.84l-3.35,12.27L114,45.63l3.39-11.56-.41-.52-7.71,6.19L107,36.9l18.83-15.12,2.67,3.33q3,3.74,2.93,6.52a6.63,6.63,0,0,1-2.65,5.14,6.85,6.85,0,0,1-4.36,1.61A6.54,6.54,0,0,1,120.18,36.84Zm-.68-5.27.72.9q3.24,4,6.33,1.56c1.92-1.55,1.84-3.63-.27-6.25l-.81-1Z"/><path d="M129.3,45.64a11.83,11.83,0,0,1,9.4,1.53,12.31,12.31,0,0,1,5.7,7.8,12.64,12.64,0,0,1-9.18,15.21,11.91,11.91,0,0,1-9.47-1.49,12.78,12.78,0,0,1-4.58-16.82A11.88,11.88,0,0,1,129.3,45.64Zm.83,3.58a8.95,8.95,0,0,0-2.67,16.4A9.36,9.36,0,0,0,140,62.54a8.49,8.49,0,0,0,1-6.79A8.58,8.58,0,0,0,137,50.2,8.73,8.73,0,0,0,130.13,49.22Z"/><path d="M145.31,83l-20.48-3.13-1.07,7-3.39-.52L122,75.73l23.87,3.65Z"/><path d="M140.13,101.29l-19-8.36-2.86,6.49L115.18,98l4.33-9.83L141.6,98Z"/><path d="M130.9,117l-19.45-14.31,2.16-2.93L133.06,114Z"/><path d="M109.57,106.53l14.58,21.27-24.94-5.24,9.49,13.84-3,2.06L91.21,117.33l24.92,5.2-9.57-13.94Z"/><path d="M77.5,133.47l-9.94.95-.07-.79a16,16,0,0,1,.18-4.86A10.24,10.24,0,0,1,69.42,125a10.92,10.92,0,0,1,8.15-4.58,11.71,11.71,0,0,1,9,2.81,12.6,12.6,0,0,1-12.29,21.52,15.06,15.06,0,0,1-5-3.29l2.35-2.72a8.82,8.82,0,0,0,7.58,3.24,8.65,8.65,0,0,0,6.15-3.24,8.86,8.86,0,0,0,2-6.73,9.08,9.08,0,0,0-9.59-8.19,7.26,7.26,0,0,0-4.63,2.27,6.47,6.47,0,0,0-2,4.59l6-.58Z"/><path d="M33.51,129.32l3.43-.09a5.1,5.1,0,0,0,.47,2.41,3.76,3.76,0,0,0,1.52,1.42,3.69,3.69,0,0,0,2.61.47,2.65,2.65,0,0,0,1.91-1.37q.87-1.54-.9-3.76l-1.63-2a10.39,10.39,0,0,1-2.34-4.63,6.56,6.56,0,0,1,.86-4.33,7.34,7.34,0,0,1,4.62-3.72,7.66,7.66,0,0,1,5.92.79,7.39,7.39,0,0,1,3.62,4.16,8.54,8.54,0,0,1-.35,5.8l-3.62-1.09a6.23,6.23,0,0,0,.67-3A4.16,4.16,0,0,0,45.16,117a4,4,0,0,0-2.39,2,4.06,4.06,0,0,0-.46,1.22,3.45,3.45,0,0,0,0,1.24,4.56,4.56,0,0,0,.49,1.32,9.68,9.68,0,0,0,1,1.48l1.56,2q3.31,4.24,1.34,7.76a5.79,5.79,0,0,1-4,3,7.54,7.54,0,0,1-5.42-.92Q33.58,134,33.51,129.32Z"/><path d="M31.39,113l7.3-6.54,2.44,2.71-18,16.12-2.75-3.08a18.45,18.45,0,0,1-2.75-3.69,6.15,6.15,0,0,1-.64-3.12,6.86,6.86,0,0,1,2.43-5,6.62,6.62,0,0,1,5.39-1.85,8.74,8.74,0,0,1,5.44,3.17Zm-2.51,2.26-.91-1q-3.36-3.73-6.23-1.16t.67,6.35l.81.9Z"/><path d="M8.24,104.67,29.62,93.43l1.69,3.23L9.94,107.89Z"/><path d="M27,90.08,1.44,93.81,17.13,73.72.53,76.15,0,72.54l25.35-3.7L9.71,88.92l16.73-2.44Z"/><path d="M24.22,65.67,0,56.74,23.41,46.6,7.67,40.79l1.26-3.42,24,8.88L9.63,56.4l15.86,5.86Z"/><path d="M28.77,19.12l-6.75,7,4.16,4,6.55-6.74,2.46,2.39L28.64,32.5l5.79,5.62,6.74-6.94,2.46,2.38-9.29,9.56L17,26.29l9.28-9.55Z"/><path d="M48.89,19l11.24,6-4,2L45.58,21.11,45,21.4l4.35,8.88-3.28,1.6L35.45,10.19l3.84-1.87c2.86-1.41,5.19-1.88,7-1.43a6.61,6.61,0,0,1,4.44,3.72,6.86,6.86,0,0,1,.61,4.61A6.54,6.54,0,0,1,48.89,19Zm-5.29-.49,1-.51q4.65-2.28,2.91-5.83Q45.92,8.88,41.4,11.1l-1.17.57Z"/></svg>